<svg width="18" height="18" viewBox="0 0 18 18" fill="none" xmlns="http://www.w3.org/2000/svg">
<g clip-path="url(#clip0_8253_2898)">
<path d="M13.4901 3.75023H11.1971C11.1971 3.31852 10.8612 2.79688 10.4464 2.79688H7.82026C7.40559 2.79688 7.0697 3.31852 7.0697 3.75023H4.77671C4.27064 3.75023 3.71289 3.82583 3.71289 4.33287V5.1173H14.2897V4.33287C14.2898 3.82585 13.997 3.75023 13.4901 3.75023Z" fill="white"/>
<path d="M4.64844 6.03467V13.5048C4.64844 14.2643 5.39315 15.1905 6.15269 15.1905H12.1144C12.8748 15.1905 13.3725 14.2643 13.3725 13.5048V6.03467H4.64844ZM7.15349 13.661H6.2357V7.0508H7.15349V13.661ZM9.45244 13.661H8.53465V7.0508H9.45244V13.661ZM11.7514 13.661H10.8336V7.0508H11.7514V13.661Z" fill="white"/>
</g>
<defs>
<clipPath id="clip0_8253_2898">
<rect width="18" height="18" fill="white"/>
</clipPath>
</defs>
</svg>
