<svg width="17" height="17" viewBox="0 0 17 17" fill="none" xmlns="http://www.w3.org/2000/svg">
<path d="M3.35219 16.6095C2.88469 16.6095 2.41719 16.4313 2.06109 16.0756C1.34953 15.364 1.34938 14.2056 2.06094 13.4935L10.3161 5.239C11.0052 4.54947 12.2086 4.549 12.8981 5.239C13.243 5.58354 13.4327 6.04213 13.4327 6.52978C13.4327 7.01744 13.2428 7.47604 12.8978 7.82057L4.64312 16.0756C4.28719 16.4313 3.81969 16.6095 3.35219 16.6095ZM11.6072 5.66119C11.3753 5.66119 11.1572 5.75182 10.9933 5.91603L2.73812 14.1704C2.39984 14.5088 2.39969 15.0601 2.73812 15.3985C3.07656 15.737 3.62781 15.737 3.96625 15.3985L12.2209 7.14353C12.385 6.97947 12.4753 6.7615 12.4753 6.52963C12.4753 6.29775 12.3852 6.07994 12.2209 5.91572C12.0569 5.75182 11.8387 5.66119 11.6072 5.66119Z" fill="url(#paint0_linear_30722_21860)"/>
<path d="M3.35219 16.6093C2.88469 16.6093 2.41719 16.4312 2.06109 16.0754C1.34953 15.3638 1.34938 14.2054 2.06094 13.4934L8.11453 7.43994L10.6966 10.022L4.64328 16.0754C4.28719 16.4312 3.81969 16.6093 3.35219 16.6093Z" fill="url(#paint1_linear_30722_21860)"/>
<path d="M13.9246 10.7826L14.3796 12.6154C14.3943 12.6748 14.4407 12.7212 14.5001 12.7359L16.3329 13.1909C16.5001 13.2325 16.5001 13.47 16.3329 13.5115L14.5001 13.9665C14.4407 13.9812 14.3943 14.0276 14.3796 14.087L13.9246 15.9198C13.883 16.087 13.6455 16.087 13.604 15.9198L13.149 14.087C13.1343 14.0276 13.0879 13.9812 13.0285 13.9665L11.1957 13.5115C11.0285 13.47 11.0285 13.2325 11.1957 13.1909L13.0285 12.7359C13.0879 12.7212 13.1343 12.6748 13.149 12.6154L13.604 10.7826C13.6455 10.6154 13.8832 10.6154 13.9246 10.7826Z" fill="url(#paint2_linear_30722_21860)"/>
<path d="M4.23791 0.186131L4.9136 2.90736C4.92436 2.95064 4.94671 2.99017 4.97824 3.0217C5.00977 3.05324 5.04931 3.07558 5.09259 3.08634L7.81393 3.762C8.06202 3.82364 8.06202 4.17643 7.81393 4.23806L5.09259 4.91373C5.04931 4.92448 5.00977 4.94683 4.97824 4.97836C4.94671 5.0099 4.92436 5.04942 4.9136 5.0927L4.23791 7.81393C4.17627 8.06202 3.82347 8.06202 3.76183 7.81393L3.0864 5.09219C3.07564 5.04891 3.05329 5.00938 3.02176 4.97785C2.99023 4.94631 2.95069 4.92397 2.90741 4.91321L0.186073 4.23755C-0.0620245 4.17591 -0.0620245 3.82312 0.186073 3.76149L2.90741 3.08582C2.95069 3.07507 2.99023 3.05272 3.02176 3.02119C3.05329 2.98965 3.07564 2.95012 3.0864 2.90685L3.76209 0.185615C3.82373 -0.0619575 4.17653 -0.0619574 4.23791 0.186131Z" fill="url(#paint3_linear_30722_21860)"/>
<path d="M15.0245 1.84043L15.2822 2.87824C15.2863 2.89476 15.2948 2.90984 15.3068 2.92187C15.3189 2.93391 15.334 2.94243 15.3505 2.94652L16.3883 3.20418C16.483 3.22762 16.483 3.36215 16.3883 3.38574L15.3505 3.6434C15.334 3.64749 15.3189 3.65602 15.3068 3.66805C15.2948 3.68008 15.2863 3.69516 15.2822 3.71168L15.0245 4.74949C15.0011 4.84418 14.8666 4.84418 14.843 4.74949L14.5853 3.71168C14.5812 3.69516 14.5727 3.68008 14.5607 3.66805C14.5486 3.65602 14.5335 3.64749 14.517 3.6434L13.4792 3.38574C13.3845 3.3623 13.3845 3.22777 13.4792 3.20418L14.517 2.94652C14.5335 2.94243 14.5486 2.93391 14.5607 2.92187C14.5727 2.90984 14.5812 2.89476 14.5853 2.87824L14.843 1.84043C14.8666 1.7459 15.0011 1.7459 15.0245 1.84043Z" fill="url(#paint4_linear_30722_21860)"/>
<defs>
<linearGradient id="paint0_linear_30722_21860" x1="7.48" y1="6.91635" x2="7.48" y2="19.9929" gradientUnits="userSpaceOnUse">
<stop stop-color="#AA66FF"/>
<stop offset="1" stop-color="#6FFFFF" stop-opacity="0.8"/>
</linearGradient>
<linearGradient id="paint1_linear_30722_21860" x1="6.11195" y1="9.13275" x2="6.11195" y2="19.2191" gradientUnits="userSpaceOnUse">
<stop stop-color="#AA66FF"/>
<stop offset="1" stop-color="#6FFFFF" stop-opacity="0.8"/>
</linearGradient>
<linearGradient id="paint2_linear_30722_21860" x1="13.7643" y1="11.6519" x2="13.7643" y2="17.5787" gradientUnits="userSpaceOnUse">
<stop stop-color="#AA66FF"/>
<stop offset="1" stop-color="#6FFFFF" stop-opacity="0.8"/>
</linearGradient>
<linearGradient id="paint3_linear_30722_21860" x1="4" y1="1.47692" x2="4" y2="10.2769" gradientUnits="userSpaceOnUse">
<stop stop-color="#AA66FF"/>
<stop offset="1" stop-color="#6FFFFF" stop-opacity="0.8"/>
</linearGradient>
<linearGradient id="paint4_linear_30722_21860" x1="14.9337" y1="2.33279" x2="14.9337" y2="5.68886" gradientUnits="userSpaceOnUse">
<stop stop-color="#AA66FF"/>
<stop offset="1" stop-color="#6FFFFF" stop-opacity="0.8"/>
</linearGradient>
</defs>
</svg>
