<svg width="18" height="18" viewBox="0 0 18 18" fill="none" xmlns="http://www.w3.org/2000/svg">
<g opacity="0.5">
<path d="M15.075 1.5H2.925C2.12625 1.5 1.5 2.22375 1.5 3.15V8.4375C1.5 8.63641 1.57902 8.82718 1.71967 8.96783C1.86032 9.10848 2.05109 9.1875 2.25 9.1875C2.44891 9.1875 2.63968 9.10848 2.78033 8.96783C2.92098 8.82718 3 8.63641 3 8.4375V3.15C3.00017 3.09887 3.00904 3.04815 3.02625 3H14.9738C14.991 3.04815 14.9998 3.09887 15 3.15V14.85C14.9998 14.9011 14.991 14.9519 14.9738 15H3.02625C3.00904 14.9519 3.00017 14.9011 3 14.85V12.7275L6.705 9.64125L10.7213 13.6537C10.8531 13.786 11.0296 13.8643 11.2162 13.8734C11.4028 13.8824 11.586 13.8214 11.73 13.7025L13.98 11.8275C14.0558 11.7645 14.1185 11.6871 14.1645 11.5999C14.2104 11.5126 14.2387 11.4171 14.2478 11.3189C14.2568 11.2207 14.2464 11.1217 14.2172 11.0275C14.188 10.9334 14.1405 10.8458 14.0775 10.77C14.0145 10.6942 13.9371 10.6315 13.8499 10.5855C13.7626 10.5396 13.6671 10.5113 13.5689 10.5022C13.4707 10.4932 13.3717 10.5036 13.2775 10.5328C13.1834 10.562 13.0958 10.6095 13.02 10.6725L11.295 12.1088L7.27875 8.09625C7.14687 7.96397 6.97038 7.88566 6.78381 7.87664C6.59724 7.86762 6.41402 7.92855 6.27 8.0475L1.77 11.7975L1.7475 11.82L1.69125 11.88L1.64625 11.9325C1.64625 11.9513 1.62 11.9738 1.605 11.9963L1.57125 12.0562C1.57125 12.0787 1.5525 12.1012 1.545 12.1275C1.54332 12.15 1.54332 12.1725 1.545 12.195C1.54287 12.2187 1.54287 12.2425 1.545 12.2663C1.54296 12.2912 1.54296 12.3163 1.545 12.3413L1.5 12.375V14.85C1.5 15.7762 2.12625 16.5 2.925 16.5H15.075C15.8737 16.5 16.5 15.7762 16.5 14.85V3.15C16.5 2.22375 15.8737 1.5 15.075 1.5Z" fill="white"/>
<path d="M13.5 6.75C13.5 6.30499 13.368 5.86998 13.1208 5.49997C12.8736 5.12996 12.5222 4.84157 12.111 4.67127C11.6999 4.50097 11.2475 4.45642 10.811 4.54323C10.3746 4.63005 9.97368 4.84434 9.65901 5.15901C9.34434 5.47368 9.13005 5.87459 9.04323 6.31105C8.95642 6.74751 9.00097 7.19991 9.17127 7.61104C9.34157 8.02217 9.62996 8.37358 9.99997 8.62081C10.37 8.86804 10.805 9 11.25 9C11.8467 9 12.419 8.76295 12.841 8.34099C13.2629 7.91904 13.5 7.34674 13.5 6.75ZM10.2863 6.75C10.2863 6.55939 10.3428 6.37306 10.4487 6.21457C10.5546 6.05608 10.7051 5.93256 10.8812 5.85961C11.0573 5.78667 11.2511 5.76758 11.438 5.80477C11.625 5.84196 11.7967 5.93374 11.9315 6.06853C12.0663 6.20331 12.158 6.37503 12.1952 6.56198C12.2324 6.74893 12.2133 6.94271 12.1404 7.11881C12.0674 7.29492 11.9439 7.44543 11.7854 7.55133C11.6269 7.65723 11.4406 7.71375 11.25 7.71375C10.9944 7.71375 10.7493 7.61221 10.5685 7.43148C10.3878 7.25074 10.2863 7.0056 10.2863 6.75Z" fill="white"/>
</g>
</svg>
