<svg width="356" height="78" viewBox="0 0 356 78" fill="none" xmlns="http://www.w3.org/2000/svg">
<path d="M22.1133 48.8711V63.9883H26.4492C29.3398 63.9883 31.3906 64.5547 32.6016 65.6875C33.8516 66.7812 34.4766 68.2266 34.4766 70.0234C34.4766 71.7812 33.8516 73.2266 32.6016 74.3594C31.3906 75.4531 29.3398 76 26.4492 76H8.22656C5.33594 76 3.26562 75.4531 2.01562 74.3594C0.804688 73.2266 0.199219 71.7617 0.199219 69.9648C0.199219 68.207 0.824219 66.7812 2.07422 65.6875C3.32422 64.5547 5.375 63.9883 8.22656 63.9883H10.1016V16.9961H8.22656C5.33594 16.9961 3.26562 16.4492 2.01562 15.3555C0.804688 14.2227 0.199219 12.7578 0.199219 10.9609C0.199219 9.16406 0.804688 7.71875 2.01562 6.625C3.26562 5.49219 5.33594 4.92578 8.22656 4.92578L35.4141 4.98438C43.8906 4.98438 50.4531 7.09375 55.1016 11.3125C59.7891 15.4922 62.1328 20.5898 62.1328 26.6055C62.1328 30.3555 61.0391 33.7734 58.8516 36.8594C56.6641 39.9062 53.3633 42.6211 48.9492 45.0039C51.4883 47.2305 54.2031 50.082 57.0938 53.5586C58.8906 55.7852 61.3125 59.2617 64.3594 63.9883C67.4062 63.9883 69.418 64.3008 70.3945 64.9258C72.1523 66.1367 73.0312 67.8359 73.0312 70.0234C73.0312 71.7812 72.4258 73.2266 71.2148 74.3594C70.0039 75.4531 67.9531 76 65.0625 76H58.207C48.4805 60.9609 40.4141 51.918 34.0078 48.8711H22.1133ZM22.1133 36.8594H31.4883C34.9648 36.8594 38.0703 36.332 40.8047 35.2773C44.4766 33.8711 46.9375 32.3867 48.1875 30.8242C49.4766 29.2617 50.1211 27.7188 50.1211 26.1953C50.1211 23.9297 48.9102 21.8398 46.4883 19.9258C44.0664 17.9727 40.5312 16.9961 35.8828 16.9961H22.1133V36.8594ZM137.777 50.3945C137.777 55.0039 136.488 59.4766 133.91 63.8125C131.371 68.1094 127.562 71.5469 122.484 74.125C117.445 76.6641 112.172 77.9336 106.664 77.9336C101.195 77.9336 95.9609 76.6836 90.9609 74.1836C85.9609 71.6445 82.1523 68.207 79.5352 63.8711C76.918 59.5352 75.6094 55.0039 75.6094 50.2773C75.6094 45.4727 76.9375 40.7656 79.5938 36.1562C82.25 31.5078 86.0586 27.8555 91.0195 25.1992C96.0195 22.543 101.234 21.2148 106.664 21.2148C112.133 21.2148 117.387 22.582 122.426 25.3164C127.504 28.0117 131.332 31.6641 133.91 36.2734C136.488 40.8438 137.777 45.5508 137.777 50.3945ZM125.766 50.4531C125.766 46.5859 124.379 43.0312 121.605 39.7891C117.816 35.4141 112.836 33.2266 106.664 33.2266C101.234 33.2266 96.7031 34.9648 93.0703 38.4414C89.4375 41.918 87.6211 45.9414 87.6211 50.5117C87.6211 54.2617 89.457 57.7773 93.1289 61.0586C96.8008 64.3008 101.312 65.9219 106.664 65.9219C112.055 65.9219 116.586 64.3008 120.258 61.0586C123.93 57.7773 125.766 54.2422 125.766 50.4531ZM206.215 0.00390625V63.9883H208.266C211.117 63.9883 213.168 64.5547 214.418 65.6875C215.668 66.7812 216.293 68.2266 216.293 70.0234C216.293 71.7812 215.668 73.2266 214.418 74.3594C213.207 75.4531 211.156 76 208.266 76H194.203V73.0703C191.469 74.6719 188.598 75.8828 185.59 76.7031C182.621 77.5234 179.535 77.9336 176.332 77.9336C167.309 77.9336 160.043 75.3359 154.535 70.1406C149.027 64.9062 146.273 58.4023 146.273 50.6289C146.273 42.5039 149.164 35.5703 154.945 29.8281C160.727 24.0859 167.777 21.2148 176.098 21.2148C179.223 21.2148 182.289 21.7031 185.297 22.6797C188.305 23.6172 191.273 25.043 194.203 26.957V12.0156H192.152C189.262 12.0156 187.191 11.4688 185.941 10.375C184.73 9.24219 184.125 7.79688 184.125 6.03906C184.125 4.24219 184.73 2.79688 185.941 1.70312C187.191 0.570313 189.262 0.00390625 192.152 0.00390625H206.215ZM194.203 50.9805C194.203 46.0195 192.465 41.8203 188.988 38.3828C185.512 34.9453 181.254 33.2266 176.215 33.2266C171.215 33.2266 166.977 34.9453 163.5 38.3828C160.023 41.8203 158.285 45.9609 158.285 50.8047C158.285 55.2188 159.848 58.8516 162.973 61.7031C166.098 64.5156 170.512 65.9219 176.215 65.9219C181.879 65.9219 186.293 64.5156 189.457 61.7031C192.621 58.8516 194.203 55.2773 194.203 50.9805ZM255.023 0.00390625V12.7188H240.727V0.00390625H255.023ZM256.664 22.7969V63.9883H271.078C273.969 63.9883 276.02 64.5547 277.23 65.6875C278.48 66.7812 279.105 68.2266 279.105 70.0234C279.105 71.7812 278.48 73.2266 277.23 74.3594C276.02 75.4531 273.969 76 271.078 76H230.238C227.348 76 225.277 75.4531 224.027 74.3594C222.816 73.2266 222.211 71.7617 222.211 69.9648C222.211 68.207 222.816 66.7812 224.027 65.6875C225.277 64.5547 227.348 63.9883 230.238 63.9883H244.652V34.8086H234.984C232.133 34.8086 230.082 34.2617 228.832 33.168C227.582 32.0352 226.957 30.5703 226.957 28.7734C226.957 27.0156 227.562 25.5898 228.773 24.4961C230.023 23.3633 232.094 22.7969 234.984 22.7969H256.664ZM310.629 22.7969V26.8398C312.816 24.9648 315.219 23.5586 317.836 22.6211C320.492 21.6836 323.363 21.2148 326.449 21.2148C333.559 21.2148 339.184 23.4219 343.324 27.8359C346.605 31.3516 348.246 35.9609 348.246 41.6641V63.9883C350.785 63.9883 352.66 64.5547 353.871 65.6875C355.082 66.7812 355.688 68.2266 355.688 70.0234C355.688 71.7812 355.062 73.2266 353.812 74.3594C352.602 75.4531 350.551 76 347.66 76H336.82C333.93 76 331.859 75.4531 330.609 74.3594C329.398 73.2266 328.793 71.7617 328.793 69.9648C328.793 68.207 329.398 66.7812 330.609 65.6875C331.82 64.5547 333.695 63.9883 336.234 63.9883V41.3125C336.234 38.6953 335.531 36.7812 334.125 35.5703C332.289 34.0078 329.535 33.2266 325.863 33.2266C323.09 33.2266 320.648 33.7734 318.539 34.8672C316.469 35.9219 313.832 38.1875 310.629 41.6641V63.9883C313.715 63.9883 315.707 64.2812 316.605 64.8672C318.52 66.0391 319.477 67.7578 319.477 70.0234C319.477 71.7812 318.852 73.2266 317.602 74.3594C316.391 75.4531 314.34 76 311.449 76H297.797C294.906 76 292.836 75.4531 291.586 74.3594C290.375 73.2266 289.77 71.7617 289.77 69.9648C289.77 67.7773 290.707 66.0781 292.582 64.8672C293.52 64.2812 295.531 63.9883 298.617 63.9883V34.8086C296.078 34.8086 294.203 34.2422 292.992 33.1094C291.781 31.9766 291.176 30.5312 291.176 28.7734C291.176 27.0156 291.781 25.5898 292.992 24.4961C294.242 23.3633 296.312 22.7969 299.203 22.7969H310.629Z" fill="white"/>
</svg>
