<svg width="14" height="14" viewBox="0 0 14 14" fill="none" xmlns="http://www.w3.org/2000/svg">
<g clip-path="url(#clip0_8225_3660)">
<path d="M10.2717 2.84505C9.2813 1.85669 7.96078 1.3125 6.56068 1.3125C5.16058 1.3125 3.84006 1.85669 2.84672 2.84505C0.801094 4.88649 0.801094 8.21044 2.84672 10.2519C3.83711 11.2402 5.15763 11.7844 6.55773 11.7844C7.95784 11.7844 9.27836 11.2402 10.2687 10.2519C12.3173 8.21044 12.3173 4.88649 10.2717 2.84505ZM9.6468 9.62827C8.82148 10.4519 7.72498 10.9049 6.55773 10.9049C5.39049 10.9049 4.29398 10.4519 3.46866 9.62827C1.7679 7.93099 1.7679 5.16593 3.47161 3.46866C4.29693 2.64502 5.39344 2.19202 6.56068 2.19202C7.72792 2.19202 8.82443 2.64502 9.64975 3.46866C11.3505 5.16888 11.3505 7.93099 9.6468 9.62827ZM12.9923 12.8073L11.3535 11.1718C11.2267 11.0453 10.9437 10.9777 10.7315 11.1718C10.5311 11.3542 10.6048 11.6836 10.7315 11.8131L12.3704 13.4486C12.4352 13.5133 12.7683 13.678 13.0071 13.4309C13.2045 13.2279 13.122 12.9338 12.9923 12.8073Z" fill="white"/>
<circle cx="6.5625" cy="6.56299" r="5.20177" stroke="white" stroke-width="1.65354"/>
<path d="M10.9375 11.3755L12.6875 13.1255" stroke="white" stroke-width="1.65354" stroke-linecap="round"/>
</g>
<defs>
<clipPath id="clip0_8225_3660">
<rect width="14" height="14" fill="white"/>
</clipPath>
</defs>
</svg>
