<svg width="17" height="17" viewBox="0 0 17 17" fill="none" xmlns="http://www.w3.org/2000/svg">
<path d="M3.35121 16.6095C2.88371 16.6095 2.41621 16.4313 2.06012 16.0756C1.34855 15.364 1.3484 14.2056 2.05996 13.4935L10.3151 5.239C11.0042 4.54947 12.2076 4.549 12.8971 5.239C13.242 5.58354 13.4317 6.04213 13.4317 6.52978C13.4317 7.01744 13.2418 7.47604 12.8968 7.82057L4.64215 16.0756C4.28621 16.4313 3.81871 16.6095 3.35121 16.6095ZM11.6062 5.66119C11.3743 5.66119 11.1562 5.75182 10.9923 5.91603L2.73715 14.1704C2.39887 14.5088 2.39871 15.0601 2.73715 15.3985C3.07559 15.737 3.62684 15.737 3.96527 15.3985L12.22 7.14353C12.384 6.97947 12.4743 6.7615 12.4743 6.52963C12.4743 6.29775 12.3842 6.07994 12.22 5.91572C12.0559 5.75182 11.8378 5.66119 11.6062 5.66119Z" fill="#C4C4C4"/>
<path d="M3.35121 16.6093C2.88371 16.6093 2.41621 16.4312 2.06012 16.0754C1.34855 15.3638 1.3484 14.2054 2.05996 13.4934L8.11355 7.43994L10.6956 10.022L4.6423 16.0754C4.28621 16.4312 3.81871 16.6093 3.35121 16.6093Z" fill="#C4C4C4"/>
<path d="M13.9256 10.7826L14.3806 12.6154C14.3953 12.6748 14.4417 12.7212 14.5011 12.7359L16.3339 13.1909C16.5011 13.2325 16.5011 13.47 16.3339 13.5115L14.5011 13.9665C14.4417 13.9812 14.3953 14.0276 14.3806 14.087L13.9256 15.9198C13.884 16.087 13.6465 16.087 13.605 15.9198L13.15 14.087C13.1353 14.0276 13.0889 13.9812 13.0295 13.9665L11.1967 13.5115C11.0295 13.47 11.0295 13.2325 11.1967 13.1909L13.0295 12.7359C13.0889 12.7212 13.1353 12.6748 13.15 12.6154L13.605 10.7826C13.6465 10.6154 13.8842 10.6154 13.9256 10.7826Z" fill="#C4C4C4"/>
<path d="M4.23791 0.186131L4.9136 2.90736C4.92436 2.95064 4.94671 2.99017 4.97824 3.0217C5.00977 3.05324 5.04931 3.07558 5.09259 3.08634L7.81393 3.762C8.06202 3.82364 8.06202 4.17643 7.81393 4.23806L5.09259 4.91373C5.04931 4.92448 5.00977 4.94683 4.97824 4.97836C4.94671 5.0099 4.92436 5.04942 4.9136 5.0927L4.23791 7.81393C4.17627 8.06202 3.82347 8.06202 3.76183 7.81393L3.0864 5.09219C3.07564 5.04891 3.05329 5.00938 3.02176 4.97785C2.99023 4.94631 2.95069 4.92397 2.90741 4.91321L0.186073 4.23755C-0.0620245 4.17591 -0.0620245 3.82312 0.186073 3.76149L2.90741 3.08582C2.95069 3.07507 2.99023 3.05272 3.02176 3.02119C3.05329 2.98965 3.07564 2.95012 3.0864 2.90685L3.76209 0.185615C3.82373 -0.0619575 4.17653 -0.0619574 4.23791 0.186131Z" fill="#C4C4C4"/>
<path d="M15.0245 1.84043L15.2822 2.87824C15.2863 2.89476 15.2948 2.90984 15.3068 2.92187C15.3189 2.93391 15.334 2.94243 15.3505 2.94652L16.3883 3.20418C16.483 3.22762 16.483 3.36215 16.3883 3.38574L15.3505 3.6434C15.334 3.64749 15.3189 3.65602 15.3068 3.66805C15.2948 3.68008 15.2863 3.69516 15.2822 3.71168L15.0245 4.74949C15.0011 4.84418 14.8666 4.84418 14.843 4.74949L14.5853 3.71168C14.5812 3.69516 14.5727 3.68008 14.5607 3.66805C14.5486 3.65602 14.5335 3.64749 14.517 3.6434L13.4792 3.38574C13.3845 3.3623 13.3845 3.22777 13.4792 3.20418L14.517 2.94652C14.5335 2.94243 14.5486 2.93391 14.5607 2.92187C14.5727 2.90984 14.5812 2.89476 14.5853 2.87824L14.843 1.84043C14.8666 1.7459 15.0011 1.7459 15.0245 1.84043Z" fill="#C4C4C4"/>
</svg>
