<svg width="12" height="12" viewBox="0 0 12 12" fill="none" xmlns="http://www.w3.org/2000/svg">
    <path d="M6 12C2.6865 12 0 9.3135 0 6C0 2.6865 2.6865 0 6 0C9.3135 0 12 2.6865 12 6C12 9.3135 9.3135 12 6 12ZM6.5 6.2945V3.4985C6.5 3.2265 6.276 3 6 3C5.722 3 5.5 3.223 5.5 3.4985V6.5015C5.49958 6.56639 5.512 6.63072 5.53654 6.69078C5.56108 6.75085 5.59726 6.80547 5.643 6.8515L7.064 8.2725C7.11036 8.31858 7.16536 8.35505 7.22585 8.37982C7.28633 8.40459 7.35112 8.41717 7.41648 8.41685C7.48184 8.41652 7.54649 8.40329 7.60673 8.37792C7.66697 8.35255 7.7216 8.31554 7.7675 8.269C7.86064 8.17584 7.91325 8.0497 7.91391 7.91797C7.91456 7.78624 7.86321 7.65958 7.771 7.5655L6.5 6.2945Z"
          fill="#606060"/>
</svg>
