<svg width="16" height="14" viewBox="0 0 16 14" fill="none" xmlns="http://www.w3.org/2000/svg">
<path d="M7.57812 4.23709L12.2754 2.4328L12.4928 8.11399L7.57812 9.90193V4.23709Z" fill="#6F6F6F"/>
<path d="M12.4976 1.97781L8.55261 0.497211L8.40207 0.449219H8.38701L8.23647 0.497211L3.81461 2.09907C3.72428 2.13106 3.66406 2.22705 3.66406 2.33903V8.466C3.66406 8.482 3.66406 8.482 3.67912 8.482L7.36012 10.3084L7.51066 10.3724L7.64615 10.4364H7.66121L7.81175 10.3724L7.96229 10.3084L12.6482 8.34475C12.6632 8.34475 12.6632 8.32875 12.6632 8.32875V2.20177C12.6482 2.10579 12.588 2.00981 12.4976 1.97781ZM7.34506 9.62052L4.28129 8.06607C4.26624 8.06607 4.26624 8.05007 4.26624 8.05007V2.93093C4.26624 2.91493 4.28129 2.89894 4.29635 2.91493L7.36012 4.45338C7.37517 4.45338 7.37517 4.46938 7.37517 4.46938V9.58852L7.34506 9.62052ZM7.64615 3.90948L4.79314 2.45101C4.77809 2.43501 4.77809 2.41902 4.79314 2.40302L8.40207 1.10511L11.5341 2.28176C11.5492 2.28176 11.5492 2.31376 11.5341 2.32975L7.66121 3.90948H7.64615ZM12.046 7.92882L7.97735 9.62052C7.96229 9.62052 7.94724 9.62052 7.94724 9.60452V4.48538C7.94724 4.46938 7.94724 4.46938 7.96229 4.46938L12.0309 2.79367C12.046 2.79367 12.0611 2.79367 12.0611 2.80967V7.92882H12.046Z" fill="#EEEEEE"/>
<path fill-rule="evenodd" clip-rule="evenodd" d="M2.80018 6.77893C2.86135 6.91521 2.80046 7.07528 2.66418 7.13645C2.06874 7.4037 1.60612 7.70909 1.29605 8.03159C0.987243 8.35276 0.841737 8.67707 0.841737 8.99401C0.841737 9.5276 1.26284 10.0898 2.14158 10.5883C3.006 11.0787 4.24321 11.4633 5.70035 11.6641C5.84833 11.6845 5.95176 11.821 5.93137 11.969C5.91097 12.117 5.77448 12.2204 5.62649 12.2C4.12572 11.9932 2.81685 11.5933 1.87466 11.0588C0.946803 10.5325 0.300781 9.82946 0.300781 8.99401C0.300781 8.49825 0.531331 8.04644 0.906094 7.65666C1.27959 7.26819 1.80804 6.92777 2.44266 6.64292C2.57894 6.58175 2.73901 6.64265 2.80018 6.77893ZM13.638 6.97511C13.7089 6.84361 13.873 6.79447 14.0045 6.86534C14.9966 7.40008 15.6939 8.12555 15.6939 8.99401C15.6939 9.51542 15.4391 9.98766 15.0296 10.391C14.6211 10.7934 14.0439 11.1433 13.3524 11.4314C11.9682 12.0081 10.0748 12.3584 7.99733 12.3584C7.93649 12.3584 7.87582 12.3581 7.81532 12.3575C7.66595 12.356 7.54605 12.2338 7.54753 12.0844C7.549 11.935 7.67129 11.8151 7.82066 11.8166C7.87938 11.8172 7.93827 11.8175 7.99733 11.8175C10.0212 11.8175 11.8408 11.4752 13.1443 10.9321C13.7967 10.6603 14.307 10.3435 14.65 10.0056C14.9921 9.66864 15.1529 9.32696 15.1529 8.99401C15.1529 8.43857 14.6958 7.85246 13.7478 7.34154C13.6163 7.27066 13.5672 7.10661 13.638 6.97511Z" fill="#EEEEEE"/>
<path d="M4.60123 13.0222C4.66333 13.1322 4.80198 13.1693 4.91098 13.1052L6.31307 12.2768C6.42186 12.2124 6.45977 12.0709 6.39771 11.961L5.59762 10.5426C5.53537 10.4324 5.39671 10.3952 5.28787 10.4596C5.17893 10.5238 5.14103 10.6653 5.20323 10.7755L5.89082 11.9944L4.68592 12.7061C4.57695 12.7705 4.53904 12.9119 4.60123 13.0222L4.60123 13.0222Z" fill="#EEEEEE"/>
<path d="M9.2071 7.7576L10.0609 5.05822L10.2511 4.96094L11.1 7.06684L10.824 7.17695L10.6077 6.6625L9.76435 7.03201L9.60928 7.5625L9.2071 7.7576ZM9.83401 6.63148L10.519 6.37607L10.2511 5.69687C10.1805 5.51044 10.1858 5.55156 10.1858 5.55156C10.1576 5.69365 10.0511 6.00674 9.99968 6.14681L9.83401 6.63148Z" fill="white"/>
</svg>
