<svg width="12" height="12" viewBox="0 0 12 12" fill="none" xmlns="http://www.w3.org/2000/svg">
<g clip-path="url(#clip0_2390_1478)">
<path d="M5.58001 11.5V0.5H6.42001V11.5H5.58001ZM6.75001 10.9363V10.1663H8.16001V10.9363H6.75001ZM1.65001 10.9363C1.47272 10.9371 1.29914 10.8897 1.15135 10.7999C1.00356 10.7101 0.888228 10.5821 0.82001 10.4321C0.773387 10.3305 0.749579 10.2214 0.75001 10.1112V2.13625C0.749185 1.97376 0.801018 1.8147 0.898935 1.67925C0.996852 1.5438 1.13644 1.43805 1.30001 1.37542C1.41079 1.33268 1.52982 1.31086 1.65001 1.31125H5.25001V2.08125H1.59001V10.1663H5.25001V10.9363H1.65001ZM9.00001 10.9363V10.1663H10.41V8.7225H11.25V10.1112C11.2507 10.2737 11.1988 10.4327 11.1009 10.5681C11.003 10.7036 10.8635 10.8093 10.7 10.8721C10.5892 10.9148 10.4702 10.9366 10.35 10.9363H9.00001ZM11.25 7.9525H10.41V6.50875H11.25V7.9525ZM11.25 5.73875H10.41V4.295H11.25V5.73875ZM11.25 3.525H10.41V2.08125H9.00001V1.31125H10.35C10.5273 1.31049 10.7008 1.35801 10.8486 1.44776C10.9963 1.53752 11.1117 1.66548 11.18 1.81542C11.226 1.91625 11.25 2.02625 11.25 2.13625V3.525ZM6.75001 2.08125V1.31125H8.16001V2.08125H6.75001Z" fill="white"/>
</g>
<defs>
<clipPath id="clip0_2390_1478">
<rect width="12" height="11" fill="white" transform="translate(0 0.5)"/>
</clipPath>
</defs>
</svg>
